<svg xmlns="http://www.w3.org/2000/svg" width="30.03" height="31.953" viewBox="0 0 30.03 31.953">
  <path id="Icon_awesome-twitter-square" data-name="Icon awesome-twitter-square" d="M26.813,2.25H3.218A3.326,3.326,0,0,0,0,5.674V30.779A3.326,3.326,0,0,0,3.218,34.2h23.6a3.326,3.326,0,0,0,3.218-3.424V5.674A3.326,3.326,0,0,0,26.813,2.25ZM23.535,13.576c.013.2.013.407.013.606,0,6.184-4.424,13.309-12.508,13.309a11.912,11.912,0,0,1-6.75-2.1,8.71,8.71,0,0,0,1.059.057,8.483,8.483,0,0,0,5.456-2A4.446,4.446,0,0,1,6.7,20.209a4.461,4.461,0,0,0,1.984-.086A4.616,4.616,0,0,1,5.161,15.53v-.057a4.2,4.2,0,0,0,1.984.592,4.754,4.754,0,0,1-1.957-3.894,4.848,4.848,0,0,1,.6-2.361A12.252,12.252,0,0,0,14.848,14.7a4.616,4.616,0,0,1,4.29-5.749,4.262,4.262,0,0,1,3.211,1.476A8.306,8.306,0,0,0,25.137,9.3a4.625,4.625,0,0,1-1.931,2.575,8.339,8.339,0,0,0,2.534-.728A9.6,9.6,0,0,1,23.535,13.576Z" transform="translate(0 -2.25)" fill="#d7e6e8"/>
</svg>
