<svg xmlns="http://www.w3.org/2000/svg" width="28.113" height="26.008" viewBox="0 0 28.113 26.008">
  <g id="Group_610" data-name="Group 610" transform="translate(-280.094 -90.072)">
    <path id="Path_1628" data-name="Path 1628" d="M24.414,6.667A6.1,6.1,0,0,1,28.55,8.259a5.175,5.175,0,0,1,1.72,3.827V22.922a5.213,5.213,0,0,1-1.72,3.827,6.05,6.05,0,0,1-4.136,1.592H12.7a6.1,6.1,0,0,1-4.136-1.592,5.175,5.175,0,0,1-1.72-3.827V12.086a5.213,5.213,0,0,1,1.72-3.827A6.05,6.05,0,0,1,12.7,6.667H24.414m0-2.167H12.7c-4.51,0-8.2,3.413-8.2,7.586V22.922c0,4.172,3.69,7.586,8.2,7.586H24.414c4.51,0,8.2-3.413,8.2-7.586V12.086c0-4.172-3.69-7.586-8.2-7.586Z" transform="translate(275.594 85.572)" fill="#d7e6e8"/>
    <path id="Path_1629" data-name="Path 1629" d="M25.382,12.251a1.691,1.691,0,0,1-1.757-1.625,1.762,1.762,0,0,1,3.514,0A1.7,1.7,0,0,1,25.382,12.251Z" transform="translate(276.382 85.407)" fill="#d7e6e8"/>
    <path id="Path_1630" data-name="Path 1630" d="M18.278,13.417a4.525,4.525,0,0,1,4.686,4.335,4.525,4.525,0,0,1-4.686,4.335,4.525,4.525,0,0,1-4.686-4.335,4.525,4.525,0,0,1,4.686-4.335m0-2.167a6.782,6.782,0,0,0-7.028,6.5,6.782,6.782,0,0,0,7.028,6.5,6.782,6.782,0,0,0,7.028-6.5,6.782,6.782,0,0,0-7.028-6.5Z" transform="translate(275.872 85.324)" fill="#d7e6e8"/>
  </g>
</svg>
