<svg xmlns="http://www.w3.org/2000/svg" width="112.034" height="112.04" viewBox="0 0 112.034 112.04">
  <g id="Group_921" data-name="Group 921" transform="translate(18719.565 22424.473)">
    <path id="Path_1656" data-name="Path 1656" d="M381.617,102.854s2.393-24.157,31-24.08c0,0-2.767,26.071-29.464,26.071s-30.767-26.071-30.767-26.071,24.256-2.85,30.116,24.275" transform="translate(-19045.711 -22500.598)" fill="none" stroke="#00cafe" stroke-miterlimit="10" stroke-width="5"/>
    <path id="Path_1657" data-name="Path 1657" d="M357.393,129.275s-24.156-2.295-24.078-29.731c0,0,26.068,2.653,26.068,28.256S333.315,157.3,333.315,157.3s-2.85-23.26,24.273-28.881" transform="translate(-19050.23 -22495.678)" fill="none" stroke="#00cafe" stroke-miterlimit="10" stroke-width="5"/>
    <path id="Path_1658" data-name="Path 1658" d="M398.563,127.77s24.156-2.3,24.078-29.731c0,0-26.069,2.653-26.069,28.255s26.069,29.5,26.069,29.5,2.85-23.26-24.273-28.881" transform="translate(-19032.822 -22496.035)" fill="none" stroke="#00cafe" stroke-miterlimit="10" stroke-width="5"/>
    <path id="Path_1659" data-name="Path 1659" d="M380.929,146.024s2.393,24.157,31,24.08c0,0-2.768-26.071-29.464-26.071S351.7,170.1,351.7,170.1s24.255,2.85,30.115-24.275" transform="translate(-19045.877 -22485.188)" fill="none" stroke="#00cafe" stroke-miterlimit="10" stroke-width="5"/>
    <path id="Path_1660" data-name="Path 1660" d="M351.126,97.389s14.986,10.429,14.986,30.212-14.986,30.212-14.986,30.212" transform="translate(-19045.396 -22496.186)" fill="none" stroke="#00cafe" stroke-linecap="round" stroke-miterlimit="10" stroke-width="5"/>
    <path id="Path_1661" data-name="Path 1661" d="M401.985,96.962S387,107.39,387,127.173s14.985,30.212,14.985,30.212" transform="translate(-19035.715 -22496.289)" fill="none" stroke="#00cafe" stroke-linecap="round" stroke-miterlimit="10" stroke-width="5"/>
    <line id="Line_69" data-name="Line 69" x2="28.299" transform="translate(-18677.604 -22368.59)" fill="none" stroke="#00cafe" stroke-linecap="round" stroke-miterlimit="10" stroke-width="5"/>
    <path id="Path_1662" data-name="Path 1662" d="M370.168,102.955v13.962h13.463V102.955" transform="translate(-19040.277 -22494.873)" fill="none" stroke="#00cafe" stroke-miterlimit="10" stroke-width="5"/>
    <path id="Path_1663" data-name="Path 1663" d="M370.31,143V129.039h13.464V143" transform="translate(-19040.24 -22488.723)" fill="none" stroke="#00cafe" stroke-miterlimit="10" stroke-width="5"/>
  </g>
</svg>
