<svg xmlns="http://www.w3.org/2000/svg" width="238.598" height="238.609" viewBox="0 0 238.598 238.609">
  <g id="Group_922" data-name="Group 922" transform="translate(18722.015 22426.923)">
    <path id="Path_1656" data-name="Path 1656" d="M414.879,130.354S420,78.706,481.162,78.872c0,0-5.916,55.738-62.994,55.738s-65.779-55.738-65.779-55.738,51.86-6.093,64.388,51.9" transform="translate(-19018.764 -22500.596)" fill="none" stroke="#ff6aa1" stroke-miterlimit="10" stroke-width="10"/>
    <path id="Path_1657" data-name="Path 1657" d="M384.892,163.109s-51.645-4.906-51.479-63.565c0,0,55.732,5.673,55.732,60.41s-55.732,63.081-55.732,63.081-6.093-49.73,51.9-61.747" transform="translate(-19050.229 -22466.344)" fill="none" stroke="#ff6aa1" stroke-miterlimit="10" stroke-width="10"/>
    <path id="Path_1658" data-name="Path 1658" d="M400.828,161.6s51.645-4.907,51.479-63.565c0,0-55.735,5.673-55.735,60.41s55.735,63.081,55.735,63.081,6.093-49.73-51.9-61.747" transform="translate(-18940.928 -22468.822)" fill="none" stroke="#ff6aa1" stroke-miterlimit="10" stroke-width="10"/>
    <path id="Path_1659" data-name="Path 1659" d="M414.19,148.29s5.117,51.648,66.284,51.482c0,0-5.918-55.738-62.994-55.738S351.7,199.771,351.7,199.771s51.857,6.093,64.385-51.9" transform="translate(-19019.902 -22393.289)" fill="none" stroke="#ff6aa1" stroke-miterlimit="10" stroke-width="10"/>
    <path id="Path_1660" data-name="Path 1660" d="M351.126,97.389s32.04,22.3,32.04,64.592-32.04,64.592-32.04,64.592" transform="translate(-19019.529 -22469.883)" fill="none" stroke="#ff6aa1" stroke-linecap="round" stroke-miterlimit="10" stroke-width="10"/>
    <path id="Path_1661" data-name="Path 1661" d="M419.038,96.962S387,119.257,387,161.552s32.038,64.593,32.038,64.593" transform="translate(-18958.006 -22470.59)" fill="none" stroke="#ff6aa1" stroke-linecap="round" stroke-miterlimit="10" stroke-width="10"/>
    <line id="Line_69" data-name="Line 69" x2="60.504" transform="translate(-18632.77 -22307.912)" fill="none" stroke="#ff6aa1" stroke-linecap="round" stroke-miterlimit="10" stroke-width="10"/>
    <path id="Path_1662" data-name="Path 1662" d="M370.168,102.955v29.851h28.785V102.955" transform="translate(-18986.914 -22460.742)" fill="none" stroke="#ff6aa1" stroke-miterlimit="10" stroke-width="10"/>
    <path id="Path_1663" data-name="Path 1663" d="M370.31,158.89v-29.85H399.1v29.85" transform="translate(-18986.674 -22417.91)" fill="none" stroke="#ff6aa1" stroke-miterlimit="10" stroke-width="10"/>
  </g>
</svg>
