<?xml version="1.0" encoding="utf-8"?>
<!-- Generator: Adobe Illustrator 24.3.0, SVG Export Plug-In . SVG Version: 6.00 Build 0)  -->
<svg version="1.1" id="圖層_1" xmlns="http://www.w3.org/2000/svg" xmlns:xlink="http://www.w3.org/1999/xlink" x="0px" y="0px"
	 viewBox="0 0 640.6 640.6" style="enable-background:new 0 0 640.6 640.6;" xml:space="preserve">
<style type="text/css">
	.st0{fill:#FFFFFF;}
	.st1{fill:none;stroke:#FF6AA1;stroke-width:10;stroke-miterlimit:10;}
	.st2{fill:none;stroke:#FF6AA1;stroke-width:10;stroke-linecap:round;stroke-miterlimit:10;}
</style>
<g id="Group_971" transform="translate(-1514.534 -3072.508)">
	<path id="Path_1689" class="st0" d="M911,3244.5h167.7l135.8,1l160.6,162.7l0,162.4l0,144.7L911,3244.5z"/>
	<g id="Group_922" transform="translate(20348.344 25739)">
		<path id="Path_1656" class="st1" d="M-19210.8-22367.9c0,0,5.1-51.6,66.3-51.5c0,0-5.9,55.7-63,55.7s-65.8-55.7-65.8-55.7
			s51.9-6.1,64.4,51.9"/>
		<path id="Path_1657" class="st1" d="M-19272.3-22300.9c0,0-51.6-4.9-51.5-63.6c0,0,55.7,5.7,55.7,60.4c0,54.7-55.7,63.1-55.7,63.1
			s-6.1-49.7,51.9-61.7"/>
		<path id="Path_1658" class="st1" d="M-19147-22304.9c0,0,51.6-4.9,51.5-63.6c0,0-55.7,5.7-55.7,60.4s55.7,63.1,55.7,63.1
			s6.1-49.7-51.9-61.7"/>
		<path id="Path_1659" class="st1" d="M-19212.7-22242.7c0,0,5.1,51.6,66.3,51.5c0,0-5.9-55.7-63-55.7s-65.8,55.7-65.8,55.7
			s51.9,6.1,64.4-51.9"/>
		<path id="Path_1660" class="st2" d="M-19275.3-22370.2c0,0,32,22.3,32,64.6c0,42.3-32,64.6-32,64.6"/>
		<path id="Path_1661" class="st2" d="M-19145.9-22371.3c0,0-32,22.3-32,64.6s32,64.6,32,64.6"/>
		<line id="Line_69" class="st2" x1="-19239.7" y1="-22305.6" x2="-19179.2" y2="-22305.6"/>
		<path id="Path_1662" class="st1" d="M-19223.7-22355.5v29.9h28.8v-29.9"/>
		<path id="Path_1663" class="st1" d="M-19223.3-22256.7v-29.8h28.8v29.8"/>
	</g>
</g>
</svg>
