<svg xmlns="http://www.w3.org/2000/svg" width="1604" height="2010.821" viewBox="0 0 1604 2010.821">
  <g id="Group_962" data-name="Group 962" transform="translate(-892 -47.486)">
    <g id="Group_941" data-name="Group 941" transform="translate(892 1660.307)">
      <text id="ARCADIA" transform="translate(802 309)" fill="#09839c" font-size="308" font-family="CrimsonText-Regular, Crimson Text" letter-spacing="0.15em" opacity="0.47"><tspan x="-801.522" y="0">ARCADIA</tspan></text>
    </g>
    <g id="Group_942" data-name="Group 942" transform="translate(1021.98 72.593)" opacity="0.47">
      <path id="Path_1656" data-name="Path 1656" d="M720.114,382.716S750.223,78.79,1110.164,79.77c0,0-34.811,328-370.691,328s-387.084-328-387.084-328,305.173-35.855,378.9,305.4" transform="translate(-54.522 -78.689)" fill="none" stroke="#09839c" stroke-miterlimit="10" stroke-width="50"/>
      <path id="Path_1657" data-name="Path 1657" d="M637.24,473.594S333.33,444.722,334.311,99.544c0,0,327.96,33.383,327.96,355.485s-327.96,371.206-327.96,371.206S298.458,533.6,639.7,462.881" transform="translate(-333.23 224.723)" fill="none" stroke="#09839c" stroke-miterlimit="10" stroke-width="50"/>
      <path id="Path_1658" data-name="Path 1658" d="M421.619,472.089s303.91-28.874,302.929-374.05c0,0-327.976,33.382-327.976,355.485S724.548,824.729,724.548,824.729,760.4,532.091,419.163,461.377" transform="translate(619.314 202.783)" fill="none" stroke="#09839c" stroke-miterlimit="10" stroke-width="50"/>
      <path id="Path_1659" data-name="Path 1659" d="M719.424,169.083s30.11,303.926,390.051,302.947c0,0-34.827-328-370.69-328-335.88,0-387.084,328-387.084,328s305.156,35.854,378.879-305.4" transform="translate(-64.56 871.934)" fill="none" stroke="#09839c" stroke-miterlimit="10" stroke-width="50"/>
      <path id="Path_1660" data-name="Path 1660" d="M351.126,97.389S539.67,228.6,539.67,477.488s-188.544,380.1-188.544,380.1" transform="translate(-65.179 193.373)" fill="none" stroke="#09839c" stroke-linecap="round" stroke-miterlimit="10" stroke-width="50"/>
      <path id="Path_1661" data-name="Path 1661" d="M575.529,96.962S387,228.161,387,477.045s188.529,380.1,188.529,380.1" transform="translate(472.115 187.117)" fill="none" stroke="#09839c" stroke-linecap="round" stroke-miterlimit="10" stroke-width="50"/>
      <line id="Line_69" data-name="Line 69" x2="356.038" transform="translate(495.636 670.799)" fill="none" stroke="#09839c" stroke-linecap="round" stroke-miterlimit="10" stroke-width="50"/>
      <path id="Path_1662" data-name="Path 1662" d="M370.169,102.955V278.613H539.554V102.955" transform="translate(219.778 274.347)" fill="none" stroke="#09839c" stroke-miterlimit="10" stroke-width="50"/>
      <path id="Path_1663" data-name="Path 1663" d="M370.311,304.7V129.039H539.7V304.7" transform="translate(221.857 653.804)" fill="none" stroke="#09839c" stroke-miterlimit="10" stroke-width="50"/>
    </g>
  </g>
</svg>
