<svg xmlns="http://www.w3.org/2000/svg" width="61.092" height="63.471" viewBox="0 0 61.092 63.471">
  <g id="Group_968" data-name="Group 968" transform="translate(11418.363 13076.942)">
    <path id="Path_1721" data-name="Path 1721" d="M60.567,407.346l-4.773-4.817a1.778,1.778,0,0,0-2.531,0,1.818,1.818,0,0,0,0,2.555l1.717,1.733H6.111l1.717-1.733a1.819,1.819,0,0,0,0-2.555,1.778,1.778,0,0,0-2.531,0L.525,407.346a1.818,1.818,0,0,0,0,2.555L5.3,414.718a1.778,1.778,0,0,0,2.531,0,1.818,1.818,0,0,0,0-2.555L6.111,410.43h48.87l-1.717,1.733a1.818,1.818,0,0,0,0,2.555,1.778,1.778,0,0,0,2.531,0l4.773-4.817A1.818,1.818,0,0,0,60.567,407.346Z" transform="translate(-11418.363 -13428.719)" fill="#fff"/>
    <path id="Path_1722" data-name="Path 1722" d="M26.9,24.384,47.693,8.489a1.745,1.745,0,0,1,2.127,0L70.609,24.384a3.691,3.691,0,0,0,5.912-3.013,3.792,3.792,0,0,0-1.478-3.013L52.827,1.372a6.723,6.723,0,0,0-8.142,0L22.47,18.357a3.792,3.792,0,0,0-1.478,3.013A3.691,3.691,0,0,0,26.9,24.384Z" transform="translate(-11436.574 -13076.941)" fill="#fff"/>
    <path id="Path_1723" data-name="Path 1723" d="M181,255h7.949v7.226H181Z" transform="translate(-11578.083 -13300.211)" fill="#fff"/>
    <path id="Path_1724" data-name="Path 1724" d="M271,255h7.949v7.226H271Z" transform="translate(-11657.502 -13300.211)" fill="#fff"/>
    <path id="Path_1725" data-name="Path 1725" d="M81,117.821v20.522a1.8,1.8,0,0,0,1.7,1.894h36.233a1.8,1.8,0,0,0,1.7-1.894V117.821l-19.815-16.576Zm31.7.947v11.366a1.8,1.8,0,0,1-1.7,1.894H90.624a1.8,1.8,0,0,1-1.7-1.894V118.768a1.8,1.8,0,0,1,1.7-1.894h20.381A1.8,1.8,0,0,1,112.7,118.768Z" transform="translate(-11488.633 -13165.992)" fill="#fff"/>
    <path id="Path_1726" data-name="Path 1726" d="M363.949,1.806A1.9,1.9,0,0,0,361.962,0h-3.974A1.9,1.9,0,0,0,356,1.806v.97L363.949,8.2Z" transform="translate(-11732.508 -13076.941)" fill="#fff"/>
  </g>
</svg>
