<svg xmlns="http://www.w3.org/2000/svg" width="61.091" height="63.471" viewBox="0 0 61.091 63.471">
  <g id="Group_969" data-name="Group 969" transform="translate(11178.617 13083.302)">
    <path id="Path_1718" data-name="Path 1718" d="M59.981,304.573c-1.708-.732-7.423-5.483-14.231-.766a7.624,7.624,0,0,1-8.753,0,11.08,11.08,0,0,0-12.724,0,7.624,7.624,0,0,1-8.753,0c-6.9-4.782-12.766.278-13.883.378A1.832,1.832,0,0,0,0,306.038v19.9a1.825,1.825,0,0,0,1.79,1.86H59.3a1.825,1.825,0,0,0,1.79-1.86v-19.64a1.863,1.863,0,0,0-1.11-1.72Zm0,0" transform="translate(-11178.617 -13347.625)" fill="#fff"/>
    <path id="Path_1719" data-name="Path 1719" d="M346,125.358a5.373,5.373,0,1,0,5.369-5.581A5.484,5.484,0,0,0,346,125.358Zm0,0" transform="translate(-11483.333 -13188.225)" fill="#fff"/>
    <path id="Path_1720" data-name="Path 1720" d="M136.272.718l-14.313,11.16a3.812,3.812,0,0,0-.72,5.21l4.652,6.449L110.3,34.344a14.788,14.788,0,0,1,4.344,2.044,4.16,4.16,0,0,0,4.782,0,14.551,14.551,0,0,1,16.7,0,4.16,4.16,0,0,0,4.782,0,14.971,14.971,0,0,1,2.289-1.28L129.113,15.6l11.45-8.929a3.81,3.81,0,0,0,.72-5.208,3.556,3.556,0,0,0-5.011-.745Zm0,0" transform="translate(-11275.754 -13083.303)" fill="#fff"/>
  </g>
</svg>
