<svg xmlns="http://www.w3.org/2000/svg" width="49.738" height="61.092" viewBox="0 0 49.738 61.092">
  <g id="Group_967" data-name="Group 967" transform="translate(11178.491 13187.139)">
    <path id="Path_1716" data-name="Path 1716" d="M101.391,28.718a13.894,13.894,0,0,0,10.153-4.207,13.893,13.893,0,0,0,4.206-10.153,13.9,13.9,0,0,0-4.207-10.153,14.356,14.356,0,0,0-20.305,0,13.894,13.894,0,0,0-4.207,10.152,13.893,13.893,0,0,0,4.207,10.153A13.9,13.9,0,0,0,101.391,28.718Zm0,0" transform="translate(-11255.389 -13187.139)" fill="#fff"/>
    <path id="Path_1717" data-name="Path 1717" d="M49.618,264.362a35.468,35.468,0,0,0-.483-3.767,29.68,29.68,0,0,0-.927-3.788,18.707,18.707,0,0,0-1.557-3.532,13.329,13.329,0,0,0-2.348-3.06,10.352,10.352,0,0,0-3.373-2.119,11.655,11.655,0,0,0-4.306-.779,4.37,4.37,0,0,0-2.334.99c-.7.456-1.518.984-2.431,1.567a13.93,13.93,0,0,1-3.146,1.386,12.215,12.215,0,0,1-7.7,0,13.9,13.9,0,0,1-3.143-1.385c-.9-.578-1.723-1.106-2.433-1.568a4.364,4.364,0,0,0-2.333-.99,11.641,11.641,0,0,0-4.305.78,10.343,10.343,0,0,0-3.373,2.119,13.333,13.333,0,0,0-2.347,3.059,18.745,18.745,0,0,0-1.557,3.533A29.753,29.753,0,0,0,.6,260.594a35.343,35.343,0,0,0-.483,3.768C.04,265.5,0,266.688,0,267.883a9.9,9.9,0,0,0,2.94,7.489,10.584,10.584,0,0,0,7.576,2.764H39.222a10.582,10.582,0,0,0,7.576-2.764,9.9,9.9,0,0,0,2.941-7.49c0-1.2-.041-2.386-.121-3.521Zm0,0" transform="translate(-11178.491 -13404.184)" fill="#fff"/>
  </g>
</svg>
