<svg xmlns="http://www.w3.org/2000/svg" width="61.091" height="63.47" viewBox="0 0 61.091 63.47">
  <g id="Group_966" data-name="Group 966" transform="translate(11418.491 13188.148)">
    <path id="Path_1715" data-name="Path 1715" d="M28.506,19.962V9.394h7.909V19.962h3.58V9.394H50.733V19.962h3.58V9.394H65.051V19.962h3.58V9.394H76.54V19.962h3.58V1.858a1.791,1.791,0,1,0-3.58,0v3.82H28.506V1.858a1.791,1.791,0,1,0-3.58,0v18.1Z" transform="translate(-11440.469 -13188.148)" fill="#fff"/>
    <g id="Group_965" data-name="Group 965" transform="translate(-11418.491 -13164.471)">
      <path id="Path_21" data-name="Path 21" d="M61.294,377.268H.213v14.883A1.825,1.825,0,0,0,2,394.009H6.009a1.825,1.825,0,0,0,1.79-1.858v-6.223a1.762,1.762,0,0,0,1.4.7,1.825,1.825,0,0,0,1.79-1.858v-.926h3.608v.926a1.791,1.791,0,1,0,3.58,0v-.926h3.608v.926a1.791,1.791,0,1,0,3.58,0v-.926h3.608v.926a1.791,1.791,0,1,0,3.58,0v-.926h3.608v.926a1.791,1.791,0,1,0,3.58,0v-.926h3.608v.926a1.791,1.791,0,1,0,3.58,0v-.926H50.53v.926a1.825,1.825,0,0,0,1.79,1.858,1.762,1.762,0,0,0,1.4-.7v6.223a1.825,1.825,0,0,0,1.79,1.858h4.006a1.825,1.825,0,0,0,1.79-1.858Z" transform="translate(-0.213 -354.217)" fill="#fff"/>
      <path id="Path_22" data-name="Path 22" d="M47.788,199.578v-7.461a4.384,4.384,0,0,0-2.726-.953H26.092a4.6,4.6,0,0,0-4.51,4.682v3.913a7.388,7.388,0,0,1,1.619-.18Z" transform="translate(-19.032 -191.164)" fill="#fff"/>
      <path id="Path_23" data-name="Path 23" d="M297.307,199.733v-3.888a4.6,4.6,0,0,0-4.51-4.682h-18.87a4.383,4.383,0,0,0-2.714.943v7.472H295.8a7.421,7.421,0,0,1,1.506.155Z" transform="translate(-238.878 -191.164)" fill="#fff"/>
      <path id="Path_24" data-name="Path 24" d="M61.293,293.477a4.273,4.273,0,0,0-4.159-4.379H4.381a4.287,4.287,0,0,0-4.169,4.379V296.3H61.293Z" transform="translate(-0.212 -276.968)" fill="#fff"/>
    </g>
  </g>
</svg>
