<svg xmlns="http://www.w3.org/2000/svg" width="26.516" height="26.008" viewBox="0 0 26.516 26.008">
  <path id="Icon_awesome-facebook-square" data-name="Icon awesome-facebook-square" d="M23.675,2.25H2.841A2.814,2.814,0,0,0,0,5.037V25.471a2.814,2.814,0,0,0,2.841,2.787h8.124V19.416H7.236V15.254h3.729V12.082c0-3.608,2.19-5.6,5.544-5.6a23.018,23.018,0,0,1,3.286.281V10.3H17.944a2.1,2.1,0,0,0-2.392,2.248v2.7h4.071l-.651,4.162h-3.42v8.842h8.124a2.814,2.814,0,0,0,2.841-2.787V5.037A2.814,2.814,0,0,0,23.675,2.25Z" transform="translate(0 -2.25)" fill="#d7e6e8"/>
</svg>
